<?xml version="1.0" encoding="utf-8"?>
<!-- Generator: Adobe Illustrator 25.4.1, SVG Export Plug-In . SVG Version: 6.00 Build 0)  -->
<svg version="1.1" xmlns="http://www.w3.org/2000/svg" xmlns:xlink="http://www.w3.org/1999/xlink" x="0px" y="0px"
	 viewBox="0 0 2000 688" style="enable-background:new 0 0 2000 688;" xml:space="preserve">
<style type="text/css">
	.st0{fill:#FFFFFF;}
	.st1{fill:#FF761C;}
	.st2{fill:#FF8C1E;}
	.st3{fill:#00C1AD;}
	.st4{fill:#D1D1D1;}
	.st5{fill:#003037;}
</style>
<g id="Logo_RGB_Claim">
</g>
<g id="Logo_RGB">
	<g>
		<g>
			<path id="XMLID_38_" class="st5" d="M528.8,388.8c8.5,0,13.4-0.6,24-2.8l2.6,18c-8.3,2.3-17.5,3.4-26.7,3.4
				c-41.1,0-53-25.7-53-55.8c0.4-29.3,18-54.1,52.8-54.1c9.2,0,17.1,1.1,26.7,3.6l-3.6,17.9c-10.2-2.3-16.2-2.6-22.5-2.6
				c-21.8,0.4-32.5,16.5-32.9,35.3C496.3,370.2,503.2,388.8,528.8,388.8z"/>
			<path id="XMLID_37_" class="st5" d="M613,297.5c33.8,0.2,48.8,25.4,48.8,54.9c0,28.8-12.9,54.5-49,54.7
				c-35.3-0.4-48.8-25.9-48.8-54.7C563.9,322.9,579.1,297.9,613,297.5z M613,389c21.6-0.2,28.6-17.7,28.6-36.6
				c-0.2-17.3-7.5-36.8-28.8-36.8c-20.7,0.2-28.8,19.4-28.8,36.8C584,372.1,592.7,389,613,389z"/>
			<path id="XMLID_36_" class="st5" d="M801.8,405.1v-67.6c0-17.1-6.4-21.8-17.1-21.8c-7.3,0-15.6,4.2-23.1,10.3
				c0.4,2.3,0.6,6.8,0.6,8.1v71h-21.1v-68.4c0-17.1-5.1-21.2-15.8-21.2c-6.8,0-16.2,4.5-24.2,10.5v79.1h-20.9V299.3h20.9v9
				c6.4-5.1,16.5-10.9,27.6-11.1c14.6-0.2,23.1,4.9,27.8,12.8c8.6-8.1,21.4-12.6,31.2-12.8c34.4-0.6,34.9,27.1,34.9,38.7v69.1H801.8
				z"/>
			<path id="XMLID_35_" class="st5" d="M967.2,405.1v-67.6c0-17.1-6.4-21.8-17.1-21.8c-7.3,0-15.6,4.2-23.1,10.3
				c0.4,2.3,0.6,6.8,0.6,8.1v71h-21.1v-68.4c0-17.1-5.1-21.2-15.8-21.2c-6.8,0-16.2,4.5-24.2,10.5v79.1h-20.9V299.3h20.9v9
				c6.4-5.1,16.5-10.9,27.6-11.1c14.6-0.2,23.1,4.9,27.8,12.8c8.6-8.1,21.4-12.6,31.2-12.8c34.4-0.6,34.9,27.1,34.9,38.7v69.1H967.2
				z"/>
			<path id="XMLID_34_" class="st5" d="M1085.3,385.8l3.2,17.1c-9.4,3.2-22.3,4.7-32.5,4.7c-41.7,0-51.9-28-51.9-56
				c0-28,12.4-53.9,47.4-53.9c21.6,0,39.7,13.4,39.9,47.4l-0.2,11.1h-66.5c0.4,20.7,11.5,33.2,32.3,33.2
				C1065.2,389.4,1073.8,388.4,1085.3,385.8z M1025.6,339.9h46.4c-0.8-21.4-11.5-25.7-21.4-25.7
				C1034.8,314,1027.5,324.7,1025.6,339.9z"/>
			<path id="XMLID_33_" class="st5" d="M1168,318.7c-5.4-1.3-10.2-1.5-13.5-1.5c-12.9-0.2-19.7,6.2-24.6,11.3v76.7H1109V299.3h20.9
				v9.4c5.4-5.6,13.7-10.5,24.4-10.7c4.3-0.2,11.5,0.6,17.5,2.8L1168,318.7z"/>
			<path id="XMLID_32_" class="st5" d="M1229,388.8c8.5,0,13.4-0.6,24-2.8l2.6,18c-8.3,2.3-17.5,3.4-26.7,3.4
				c-41.1,0-53-25.7-53-55.8c0.4-29.3,18-54.1,52.8-54.1c9.2,0,17.1,1.1,26.7,3.6l-3.6,17.9c-10.2-2.3-16.2-2.6-22.5-2.6
				c-21.8,0.4-32.5,16.5-32.9,35.3C1196.5,370.2,1203.5,388.8,1229,388.8z"/>
			<path id="XMLID_31_" class="st5" d="M1345.3,385.8l3.2,17.1c-9.4,3.2-22.3,4.7-32.5,4.7c-41.7,0-51.9-28-51.9-56
				c0-28,12.4-53.9,47.4-53.9c21.6,0,39.7,13.4,39.9,47.4l-0.2,11.1h-66.5c0.4,20.7,11.5,33.2,32.3,33.2
				C1325.3,389.4,1333.9,388.4,1345.3,385.8z M1285.6,339.9h46.4c-0.8-21.4-11.5-25.7-21.4-25.7
				C1294.8,314,1287.5,324.7,1285.6,339.9z"/>
			<path id="XMLID_30_" class="st5" d="M1422,316.7h-28.8V368c0,10.7,1.3,18.2,12.2,19.7c6,0.6,12.2,0,18.2-0.8l1.3,18
				c-6.2,1.1-15,1.3-18.6,1.3c-24.6-0.9-33.8-13.5-33.8-33.3v-56.4h-15.2v-14.5l15.2-1.7v-24.6h20.7v23.5h28.8L1422,316.7
				L1422,316.7z"/>
			<path id="XMLID_29_" class="st5" d="M1482.7,297.5c33.8,0.2,48.8,25.4,48.8,54.9c0,28.8-12.9,54.5-49,54.7
				c-35.3-0.4-48.8-25.9-48.8-54.7C1433.6,322.9,1448.9,297.9,1482.7,297.5z M1482.7,389c21.6-0.2,28.6-17.7,28.6-36.6
				c-0.2-17.3-7.5-36.8-28.8-36.8c-20.7,0.2-28.8,19.4-28.8,36.8C1453.8,372.1,1462.4,389,1482.7,389z"/>
			<path id="XMLID_28_" class="st5" d="M1595,297.5c33.8,0.2,48.8,25.4,48.8,54.9c0,28.8-12.9,54.5-49,54.7
				c-35.3-0.4-48.8-25.9-48.8-54.7C1546,322.9,1561.2,297.9,1595,297.5z M1595,389c21.6-0.2,28.6-17.7,28.6-36.6
				c-0.2-17.3-7.5-36.8-28.8-36.8c-20.7,0.2-28.8,19.4-28.8,36.8C1566.1,372.1,1574.7,389,1595,389z"/>
			<path id="XMLID_27_" class="st5" d="M1660.4,405.1V261.6h20.1v143.6H1660.4z"/>
			<path id="XMLID_26_" class="st5" d="M1701.8,384.7c11.8,3,22.9,4.5,29.9,4.5c8.3,0,16.7-1.7,17.3-11.7
				c0.6-10.5-10.3-13.7-22.7-19c-14.1-5.8-29.3-13.7-28.9-33.3c0.4-9.8,6.2-28.9,37.4-28c9.4,0.2,20.7,1.7,30.1,4.2l-3.5,17.3
				c-11.1-2.6-19.4-3.8-27.4-4c-9,0-16,2.8-16.3,11.3c-0.2,7.1,5.4,10.9,19.4,16.5c14.1,5.8,34,13.4,33.1,35.5
				c-0.6,14.1-9.8,29.5-38.2,29.1c-9-0.2-23.5-1.3-34.2-5.1L1701.8,384.7z"/>
			<g>
				<path id="XMLID_25_" class="st1" d="M232.6,404.2c-1.7,0.8-2.7,2.4-2.7,4.3s1.1,3.5,2.7,4.3l91.6,42.9c1.2,0.6,2.6,0.9,3.9,0.9
					v-95.8c-1.4,0-2.7,0.3-4,0.9L232.6,404.2z"/>
				<g id="XMLID_8_">
					<path class="st2" d="M328.1,360.8v95.8c1.4,0,2.8-0.3,4.2-0.9l91.4-42.8c1.7-0.8,2.7-2.4,2.7-4.3c0-1.8-1.1-3.5-2.7-4.3
						l-91.6-42.6C330.8,361.1,329.5,360.8,328.1,360.8z"/>
				</g>
				<path id="XMLID_4_" class="st3" d="M229.9,278.9c0,1.9,1.1,3.5,2.7,4.3l91.6,42.9c1.2,0.6,2.6,0.9,3.9,0.9
					c1.2,0,2.3-0.2,3.4-0.6c0.9-0.4,0.7-0.3,2.6-1.2c9.5-4.4,3.2-1.5,89.5-41.9c1.7-0.8,2.7-2.4,2.7-4.3c0-1.8-1.1-3.5-2.7-4.3
					l-91.5-42.6c-2.5-1.2-5.4-1.2-8,0l-91.6,42.5C231,275.4,229.9,277.1,229.9,278.9z"/>
				<g id="XMLID_2_">
					<path class="st4" d="M328.1,332.3v28.4c-1.4,0-2.7,0.3-4,0.9l-91.5,42.6c-1.7,0.8-2.7,2.4-2.7,4.3V282c0,0,0-3.6,0-3.2
						c0,1.9,1.1,3.5,2.7,4.3l91.6,42.9c1.2,0.6,2.6,0.9,3.9,0.9c1.2,0,2.3-0.2,3.4-0.6l-0.2,0.1
						C328.5,327.7,328.1,329.1,328.1,332.3z"/>
				</g>
			</g>
		</g>
	</g>
</g>
</svg>
